inDegrees=yes
name=ik_Shooting_orientation_zug
DataType=double
version=3
OpenSimVersion=4.3-2021-08-27-4bc7ad9
endheader
time	pelvis_tilt	pelvis_list	pelvis_rotation	pelvis_tx	pelvis_ty	pelvis_tz	hip_flexion_r	hip_adduction_r	hip_rotation_r	knee_angle_r	knee_angle_r_beta	ankle_angle_r	subtalar_angle_r	mtp_angle_r	hip_flexion_l	hip_adduction_l	hip_rotation_l	knee_angle_l	knee_angle_l_beta	ankle_angle_l	subtalar_angle_l	mtp_angle_l	lumbar_extension	lumbar_bending	lumbar_rotation	arm_flex_r	arm_add_r	arm_rot_r	elbow_flex_r	pro_sup_r	wrist_flex_r	wrist_dev_r	arm_flex_l	arm_add_l	arm_rot_l	elbow_flex_l	pro_sup_l	wrist_flex_l	wrist_dev_l
9.58	-2.193196445393431	-2.001609337510652	147.5077965250042	0	0.9399999999999999	0	44.9949236665804	-9.999999987694387	0	59.98756648470598	1.04698054541712	-4.999999851040788	0	0	44.9949236665804	-9.999999987694387	0	59.98756648470598	1.04698054541712	-4.999999851040788	0	0	9.626276174667177	-74.52445240444111	14.31976147927695	-70.54468925446091	-119.9962816118	89.9964006017412	149.9978771050052	45.00000019338796	0	0	0	-14.86460911868829	0	74.99678262998289	45.00000019338796	0	0
9.59	-2.177813568085707	-1.94738954360261	147.6008460191275	0	0.9399999999999999	0	44.99492481799965	-9.999999987695084	0	59.9875687301866	1.04698058460815	-4.999999851040793	0	0	44.99492481799965	-9.999999987695084	0	59.9875687301866	1.04698058460815	-4.999999851040793	0	0	9.637638398246201	-74.88795293244077	14.49550164149233	-71.02006444829004	-119.9962521186837	89.99643517101751	149.9979036561937	45.00000019342666	0	0	0	-14.86462487457672	0	74.99678339961415	45.00000019342666	0	0
9.6	-2.161713308222107	-2.005523960756728	147.4511167963996	0	0.9399999999999999	0	44.99494739934229	-9.999999987708708	0	59.98761247674121	1.046981348129564	-4.999999851040925	0	0	44.99494739934229	-9.999999987708708	0	59.98761247674121	1.046981348129564	-4.999999851040925	0	0	11.69838240911344	-75.11867650305628	16.7103278458487	-71.77402181410608	-119.9961984293239	89.99646281734402	149.9979315563668	45.00000019418784	0	0	0	-14.86493270284096	0	74.99679849342677	45.00000019418784	0	0
9.609999999999999	-2.134660952694485	-1.997541336750755	147.4697073073213	0	0.9399999999999999	0	44.99494868347455	-9.999999987709478	0	59.98761498038224	1.046981391826344	-4.999999851040932	0	0	44.99494868347455	-9.999999987709478	0	59.98761498038224	1.046981391826344	-4.999999851040932	0	0	11.77535132218755	-75.58399750090699	16.73976148345803	-72.18325134643753	-119.9961474685961	89.9965003354183	149.9979632495204	45.00000019423071	0	0	0	-14.86495029905193	0	74.996799351766	45.00000019423071	0	0
9.619999999999999	-2.121253993224125	-1.983793803886942	147.4506974634162	0	0.9399999999999999	0	44.9949500299995	-9.999999987710281	0	59.9876176079345	1.046981437685782	-4.999999851040939	0	0	44.9949500299995	-9.999999987710281	0	59.9876176079345	1.046981437685782	-4.999999851040939	0	0	11.89892110449595	-75.96715167779135	16.81270456151728	-72.40600908175126	-119.9961168521585	89.996527768245	149.9979899660231	45.00000019427559	0	0	0	-14.86496876322011	0	74.99680025180974	45.00000019427559	0	0
9.630000000000001	-2.137405462796224	-1.976946512576325	147.4690573382153	0	0.9399999999999999	0	44.99495137165169	-9.999999987711083	0	59.98762022244706	1.046981483317634	-4.999999851040946	0	0	44.99495137165169	-9.999999987711083	0	59.98762022244706	1.046981483317634	-4.999999851040946	0	0	12.02358747547113	-76.54202294814509	16.8993917404456	-72.74035556340544	-119.9960738887044	89.99656525843848	149.9980131370989	45.00000019432037	0	0	0	-14.86498714444525	0	74.99680114859643	45.00000019432037	0	0
9.640000000000001	-2.152849949953027	-1.957243963521841	147.5317698285899	0	0.9399999999999999	0	44.99495275334102	-9.999999987711906	0	59.98762291985375	1.046981530396262	-4.999999851040953	0	0	44.99495275334102	-9.999999987711906	0	59.98762291985375	1.046981530396262	-4.999999851040953	0	0	12.12039269052522	-76.85838158193842	17.07742511931178	-73.05437978777785	-119.9960444508084	89.99658885186997	149.9980338886389	45.00000019436638	0	0	0	-14.86500610038845	0	74.99680207214475	45.00000019436638	0	0
9.65	-2.180940213178871	-1.993756672494521	147.4336203048163	0	0.9399999999999999	0	44.99498213225952	-9.999999987729405	0	59.9876799113275	1.046982525085125	-4.999999851041098	0	0	44.99498213225952	-9.999999987729405	0	59.9876799113275	1.046982525085125	-4.999999851041098	0	0	14.16777549944912	-76.86381698547788	19.36383015952944	-73.67495605146712	-119.9960005536068	89.9965994799891	149.9980539921546	45.00000019534603	0	0	0	-14.86540778529981	0	74.99682170959117	45.00000019534603	0	0
9.66	-2.176913283160224	-1.925301801305411	147.5225261917045	0	0.9399999999999999	0	44.9949832211674	-9.999999987730041	0	59.98768205052857	1.046982562421227	-4.999999851041103	0	0	44.9949832211674	-9.999999987730041	0	59.98768205052857	1.046982562421227	-4.999999851041103	0	0	14.12416013758694	-76.87395115686324	19.53081479077107	-73.99705676377725	-119.9959803105189	89.99660862103293	149.9980711374318	45.00000019538174	0	0	0	-14.86542282216162	0	74.99682243743865	45.00000019538174	0	0
9.67	-2.239924634911079	-1.947331371719837	147.4355278702376	0	0.9399999999999999	0	44.99500998995903	-9.999999987745715	0	59.98773406276721	1.046983470206043	-4.999999851041249	0	0	44.99500998995903	-9.999999987745715	0	59.98773406276721	1.046983470206043	-4.999999851041249	0	0	15.41560139380951	-76.84288743682278	21.0303627905309	-74.37261995029858	-119.9959548847049	89.99661344703266	149.998082312641	45.00000019626456	0	0	0	-14.86578996149021	0	74.9968403302253	45.00000019626456	0	0
9.68	-2.23691148707561	-1.91910615412586	147.4810069433952	0	0.9399999999999999	0	44.99501195695526	-9.999999987746852	0	59.98773791656713	1.04698353746754	-4.99999985104126	0	0	44.99501195695526	-9.999999987746852	0	59.98773791656713	1.04698353746754	-4.99999985104126	0	0	15.45681646215683	-77.06774654655501	21.09355967101034	-74.51501503285583	-119.9959377983733	89.99662939233288	149.9980910576243	45.00000019632853	0	0	0	-14.86581712691634	0	74.99684164500432	45.00000019632853	0	0
9.69	-2.253196965970851	-1.935930277966102	147.4620847615145	0	0.9399999999999999	0	44.9950501800428	-9.999999987768863	0	59.98781224665586	1.046984834772321	-4.999999851041467	0	0	44.9950501800428	-9.999999987768863	0	59.98781224665586	1.046984834772321	-4.999999851041467	0	0	18.58935509295397	-78.60747838909538	24.37001401479684	-75.18525714050192	-119.9959055333963	89.99671557110672	149.9981348411522	45.00000019757462	0	0	0	-14.86634290852811	0	74.99686719406843	45.00000019757462	0	0
